<?xml version="1.0" standalone="no"?><!DOCTYPE svg PUBLIC "-//W3C//DTD SVG 1.1//EN" "http://www.w3.org/Graphics/SVG/1.1/DTD/svg11.dtd"><svg class="icon" width="48px" height="48.00px" viewBox="0 0 1024 1024" version="1.1" xmlns="http://www.w3.org/2000/svg"><path d="M502.757 960.219c-60.5 0-119.201-11.854-174.474-35.231-53.377-22.576-101.31-54.894-142.466-96.05-41.156-41.153-73.472-89.088-96.049-142.465C66.39 631.201 54.537 572.5 54.537 512S66.39 392.799 89.768 337.526c22.576-53.376 54.893-101.309 96.049-142.465 41.156-41.157 89.089-73.473 142.466-96.049 55.271-23.378 113.973-35.231 174.474-35.231 60.499 0 119.2 11.853 174.474 35.231 53.377 22.577 101.31 54.893 142.466 96.05 41.157 41.155 73.472 89.088 96.048 142.465 23.379 55.27 35.231 113.972 35.231 174.474s-11.854 119.204-35.232 174.473c-22.577 53.38-54.892 101.312-96.047 142.466-41.156 41.155-89.09 73.473-142.465 96.049C621.956 948.365 563.256 960.219 502.757 960.219zM502.757 94.48c-56.369 0-111.047 11.038-162.515 32.806-49.717 21.029-94.369 51.136-132.716 89.482-38.348 38.348-68.453 83-89.482 132.717C96.275 400.952 85.237 455.63 85.237 512c0 56.368 11.038 111.047 32.807 162.512 21.03 49.722 51.135 94.373 89.482 132.717 38.347 38.351 82.999 68.455 132.716 89.482 51.469 21.77 106.146 32.809 162.515 32.809s111.046-11.036 162.516-32.809c49.717-21.029 94.368-51.135 132.715-89.482 38.348-38.344 68.453-82.996 89.48-132.715 21.771-51.465 32.809-106.145 32.809-162.514 0-56.371-11.037-111.049-32.809-162.515-21.028-49.718-51.135-94.371-89.48-132.718-38.348-38.347-82.999-68.453-132.717-89.482C613.804 105.518 559.125 94.48 502.757 94.48zM446.479 719.294l0 74.638 89.476 0 0-74.638L446.479 719.294zM677.814 461.148c13.094-19.66 19.645-41.14 19.645-64.442 0-40.29-18.628-74.642-55.87-103.039-37.253-28.397-87.159-42.599-149.72-42.599-59.074 0-106.578 13.231-142.51 39.685-35.942 26.461-57.545 64.57-64.816 114.325l80.75 8.01c6.979-37.134 21.674-64.443 44.081-81.917 22.407-17.479 50.34-26.216 83.806-26.216 34.628 0 63.873 9.647 87.736 28.943 23.858 19.299 35.795 41.69 35.795 67.178 0 14.08-4.082 27.068-12.226 38.956-8.149 11.897-25.823 27.854-53.032 47.879-27.21 20.024-46.045 35.258-56.526 45.695-14.259 14.323-24.589 28.523-30.986 42.596-8.733 18.695-13.093 40.905-13.093 66.63 0 4.371 0.14 10.923 0.436 19.663l75.509 0c0.578-26.216 2.761-45.153 6.55-56.798 3.775-11.651 9.602-21.969 17.456-30.951 7.859-8.975 24.59-22.938 50.198-41.868C639.109 504.722 664.72 480.814 677.814 461.148L677.814 461.148z" /></svg>